<svg xmlns="http://www.w3.org/2000/svg" viewBox="0 0 220 220" fill="none">
  <g stroke="#7fc1de" stroke-width="6" stroke-linecap="round" stroke-linejoin="round">
    <circle cx="110" cy="110" r="16" />
    <circle cx="110" cy="110" r="34" opacity="0.48" />
    <g>
      <path d="M110 94V34" />
      <path d="M110 50l-14 12M110 50l14 12" />
      <path d="M110 68l-20 16M110 68l20 16" />
      <circle cx="110" cy="24" r="9" fill="#d3ebf6" stroke="none" />
      <circle cx="110" cy="44" r="4" fill="#d3ebf6" stroke="none" />
    </g>
    <g transform="rotate(60 110 110)">
      <path d="M110 94V34" />
      <path d="M110 50l-14 12M110 50l14 12" />
      <path d="M110 68l-20 16M110 68l20 16" />
      <circle cx="110" cy="24" r="9" fill="#d3ebf6" stroke="none" />
      <circle cx="110" cy="44" r="4" fill="#d3ebf6" stroke="none" />
    </g>
    <g transform="rotate(120 110 110)">
      <path d="M110 94V34" />
      <path d="M110 50l-14 12M110 50l14 12" />
      <path d="M110 68l-20 16M110 68l20 16" />
      <circle cx="110" cy="24" r="9" fill="#d3ebf6" stroke="none" />
      <circle cx="110" cy="44" r="4" fill="#d3ebf6" stroke="none" />
    </g>
    <g transform="rotate(180 110 110)">
      <path d="M110 94V34" />
      <path d="M110 50l-14 12M110 50l14 12" />
      <path d="M110 68l-20 16M110 68l20 16" />
      <circle cx="110" cy="24" r="9" fill="#d3ebf6" stroke="none" />
      <circle cx="110" cy="44" r="4" fill="#d3ebf6" stroke="none" />
    </g>
    <g transform="rotate(240 110 110)">
      <path d="M110 94V34" />
      <path d="M110 50l-14 12M110 50l14 12" />
      <path d="M110 68l-20 16M110 68l20 16" />
      <circle cx="110" cy="24" r="9" fill="#d3ebf6" stroke="none" />
      <circle cx="110" cy="44" r="4" fill="#d3ebf6" stroke="none" />
    </g>
    <g transform="rotate(300 110 110)">
      <path d="M110 94V34" />
      <path d="M110 50l-14 12M110 50l14 12" />
      <path d="M110 68l-20 16M110 68l20 16" />
      <circle cx="110" cy="24" r="9" fill="#d3ebf6" stroke="none" />
      <circle cx="110" cy="44" r="4" fill="#d3ebf6" stroke="none" />
    </g>
  </g>
</svg>
