<?xml version="1.0" encoding="UTF-8" standalone="no"?>
<svg
   width="258.45837"
   zoomAndPan="magnify"
   viewBox="0 0 193.84378 40.093751"
   height="53.458336"
   preserveAspectRatio="xMidYMid"
   version="1.2"
   id="svg3842"
   sodipodi:docname="logo.svg"
   inkscape:version="1.2.2 (b0a84865, 2022-12-01)"
   xmlns:inkscape="http://www.inkscape.org/namespaces/inkscape"
   xmlns:sodipodi="http://sodipodi.sourceforge.net/DTD/sodipodi-0.dtd"
   xmlns="http://www.w3.org/2000/svg"
   xmlns:svg="http://www.w3.org/2000/svg">
  <sodipodi:namedview
     id="namedview3844"
     pagecolor="#ffffff"
     bordercolor="#000000"
     borderopacity="0.25"
     inkscape:showpageshadow="2"
     inkscape:pageopacity="0.0"
     inkscape:pagecheckerboard="0"
     inkscape:deskcolor="#d1d1d1"
     showgrid="false"
     inkscape:zoom="0.472"
     inkscape:cx="114.40678"
     inkscape:cy="73.09322"
     inkscape:window-width="1403"
     inkscape:window-height="665"
     inkscape:window-x="0"
     inkscape:window-y="25"
     inkscape:window-maximized="0"
     inkscape:current-layer="svg3842" />
  <defs
     id="defs3761" />
  <g
     id="51c96a8fe6"
     transform="translate(-107.83292,-141.59354)"
     inkscape:export-filename="../Documents/GitHub/aifreelancer/images/logo.png"
     inkscape:export-xdpi="143.66328"
     inkscape:export-ydpi="143.66328">
    <g
       style="fill:#2e2e2e;fill-opacity:1"
       id="g3767">
      <g
         transform="translate(164.3265,175.8506)"
         id="g3765">
        <path
           style="stroke:none"
           d="m 2.125,-23.8125 c 0,-0.226562 0.117188,-0.34375 0.359375,-0.34375 H 11.625 c 0.226562,0 0.34375,0.117188 0.34375,0.34375 v 1.953125 c 0,0.242187 -0.117188,0.359375 -0.34375,0.359375 H 5.21875 c -0.136719,0 -0.203125,0.07422 -0.203125,0.21875 v 7.671875 c 0,0.148437 0.066406,0.21875 0.203125,0.21875 h 5.546875 c 0.238281,0 0.359375,0.117187 0.359375,0.34375 v 1.96875 c 0,0.230469 -0.121094,0.34375 -0.359375,0.34375 H 5.21875 c -0.136719,0 -0.203125,0.07422 -0.203125,0.21875 v 10.15625 C 5.015625,-0.117188 4.894531,0 4.65625,0 H 2.484375 C 2.242188,0 2.125,-0.117188 2.125,-0.359375 Z m 0,0"
           id="path3763" />
      </g>
    </g>
    <g
       style="fill:#2e2e2e;fill-opacity:1"
       id="g3773">
      <g
         transform="translate(177.25782,175.8506)"
         id="g3771">
        <path
           style="stroke:none"
           d="M 11.078125,0 C 10.890625,0 10.757812,-0.0820312 10.6875,-0.25 L 7.671875,-10.34375 c -0.167969,0.03125 -0.335937,0.04687 -0.5,0.04687 -0.167969,0 -0.328125,0 -0.484375,0 H 5.21875 c -0.136719,0 -0.203125,0.07031 -0.203125,0.203125 V -0.35938 C 5.015625,-0.117188 4.894531,0 4.65625,0 H 2.484375 C 2.242188,0 2.125,-0.117188 2.125,-0.359375 V -23.8125 c 0,-0.226562 0.117188,-0.34375 0.359375,-0.34375 H 6.71875 c 2.125,0 3.742188,0.523438 4.859375,1.5625 1.113281,1.042969 1.671875,2.839844 1.671875,5.390625 0,1.636719 -0.257812,2.953125 -0.765625,3.953125 -0.511719,0.992188 -1.242187,1.726562 -2.1875,2.203125 l 3.375,10.6875 C 13.773438,-0.117188 13.71875,0 13.5,0 Z M 6.75,-12.890625 c 1.257812,0 2.175781,-0.300781 2.75,-0.90625 0.582031,-0.601563 0.875,-1.738281 0.875,-3.40625 0,-1.632813 -0.289062,-2.757813 -0.859375,-3.375 C 8.953125,-21.191406 8.03125,-21.5 6.75,-21.5 H 5.21875 c -0.136719,0 -0.203125,0.07422 -0.203125,0.21875 v 8.171875 c 0,0.148437 0.066406,0.21875 0.203125,0.21875 z m 0,0"
           id="path3769" />
      </g>
    </g>
    <g
       style="fill:#2e2e2e;fill-opacity:1"
       id="g3779">
      <g
         transform="translate(192.2141,175.8506)"
         id="g3777">
        <path
           style="stroke:none"
           d="m 2.125,-23.8125 c 0,-0.226562 0.117188,-0.34375 0.359375,-0.34375 H 11.625 c 0.226562,0 0.34375,0.117188 0.34375,0.34375 v 1.953125 c 0,0.242187 -0.117188,0.359375 -0.34375,0.359375 H 5.21875 c -0.136719,0 -0.203125,0.07422 -0.203125,0.21875 V -13.75 c 0,0.148438 0.066406,0.21875 0.203125,0.21875 h 5.546875 c 0.238281,0 0.359375,0.117188 0.359375,0.34375 v 1.953125 c 0,0.242187 -0.121094,0.359375 -0.359375,0.359375 H 5.21875 c -0.136719,0 -0.203125,0.07422 -0.203125,0.21875 V -2.875 c 0,0.136719 0.066406,0.203125 0.203125,0.203125 H 11.625 c 0.226562,0 0.34375,0.121094 0.34375,0.359375 v 1.953125 C 11.96875,-0.117188 11.851562,0 11.625,0 H 2.484375 C 2.242188,0 2.125,-0.117188 2.125,-0.359375 Z m 0,0"
           id="path3775" />
      </g>
    </g>
    <g
       style="fill:#2e2e2e;fill-opacity:1"
       id="g3785">
      <g
         transform="translate(205.25199,175.8506)"
         id="g3783">
        <path
           style="stroke:none"
           d="m 2.125,-23.8125 c 0,-0.226562 0.117188,-0.34375 0.359375,-0.34375 H 11.625 c 0.226562,0 0.34375,0.117188 0.34375,0.34375 v 1.953125 c 0,0.242187 -0.117188,0.359375 -0.34375,0.359375 H 5.21875 c -0.136719,0 -0.203125,0.07422 -0.203125,0.21875 V -13.75 c 0,0.148438 0.066406,0.21875 0.203125,0.21875 h 5.546875 c 0.238281,0 0.359375,0.117188 0.359375,0.34375 v 1.953125 c 0,0.242187 -0.121094,0.359375 -0.359375,0.359375 H 5.21875 c -0.136719,0 -0.203125,0.07422 -0.203125,0.21875 V -2.875 c 0,0.136719 0.066406,0.203125 0.203125,0.203125 H 11.625 c 0.226562,0 0.34375,0.121094 0.34375,0.359375 v 1.953125 C 11.96875,-0.117188 11.851562,0 11.625,0 H 2.484375 C 2.242188,0 2.125,-0.117188 2.125,-0.359375 Z m 0,0"
           id="path3781" />
      </g>
    </g>
    <g
       style="fill:#2e2e2e;fill-opacity:1"
       id="g3791">
      <g
         transform="translate(218.28988,175.8506)"
         id="g3789">
        <path
           style="stroke:none"
           d="m 2.125,-23.8125 c 0,-0.226562 0.117188,-0.34375 0.359375,-0.34375 H 4.65625 c 0.238281,0 0.359375,0.117188 0.359375,0.34375 V -2.875 c 0,0.136719 0.066406,0.203125 0.203125,0.203125 h 6.328125 c 0.238281,0 0.359375,0.121094 0.359375,0.359375 v 1.953125 C 11.90625,-0.117188 11.785156,0 11.546875,0 h -9.0625 C 2.242188,0 2.125,-0.117188 2.125,-0.359375 Z m 0,0"
           id="path3787" />
      </g>
    </g>
    <g
       style="fill:#2e2e2e;fill-opacity:1"
       id="g3797">
      <g
         transform="translate(231.00805,175.8506)"
         id="g3795">
        <path
           style="stroke:none"
           d="m 5.796875,-23.8125 c 0.0625,-0.226562 0.191406,-0.34375 0.390625,-0.34375 h 2.125 c 0.21875,0 0.347656,0.117188 0.390625,0.34375 L 13.78125,-0.359375 C 13.832031,-0.117188 13.726562,0 13.46875,0 H 11.328125 C 11.117188,0 10.988281,-0.117188 10.9375,-0.359375 L 9.875,-5.65625 H 4.515625 l -1.0625,5.296875 C 3.398438,-0.117188 3.28125,0 3.09375,0 H 0.953125 C 0.691406,0 0.585938,-0.117188 0.640625,-0.359375 Z M 9.375,-8.140625 7.3125,-18.65625 H 7.21875 L 5.015625,-8.140625 Z m 0,0"
           id="path3793" />
      </g>
    </g>
    <g
       style="fill:#2e2e2e;fill-opacity:1"
       id="g3803">
      <g
         transform="translate(245.43144,175.8506)"
         id="g3801">
        <path
           style="stroke:none"
           d="m 2.125,-23.8125 c 0,-0.226562 0.117188,-0.34375 0.359375,-0.34375 H 5.15625 c 0.28125,0 0.457031,0.117188 0.53125,0.34375 l 5.390625,18.125 h 0.15625 v -18.125 c 0,-0.226562 0.113281,-0.34375 0.34375,-0.34375 h 1.890625 c 0.238281,0 0.359375,0.117188 0.359375,0.34375 V -0.359375 C 13.828125,-0.117188 13.707031,0 13.46875,0 H 10.9375 c -0.28125,0 -0.460938,-0.117188 -0.53125,-0.359375 l -5.5,-18.109375 H 4.71875 V -0.359375 C 4.71875,-0.117188 4.601562,0 4.375,0 H 2.484375 C 2.242188,0 2.125,-0.117188 2.125,-0.359375 Z m 0,0"
           id="path3799" />
      </g>
    </g>
    <g
       style="fill:#2e2e2e;fill-opacity:1"
       id="g3809">
      <g
         transform="translate(261.38244,175.8506)"
         id="g3807">
        <path
           style="stroke:none"
           d="M 2.171875,-3.234375 C 2.097656,-3.472656 2.03125,-3.75 1.96875,-4.0625 1.914062,-4.382812 1.867188,-4.851562 1.828125,-5.46875 1.796875,-6.082031 1.769531,-6.910156 1.75,-7.953125 c -0.011719,-1.039063 -0.015625,-2.414063 -0.015625,-4.125 0,-1.707031 0.00391,-3.082031 0.015625,-4.125 0.019531,-1.039063 0.046875,-1.867187 0.078125,-2.484375 0.039063,-0.613281 0.085937,-1.070312 0.140625,-1.375 0.0625,-0.3125 0.128906,-0.597656 0.203125,-0.859375 0.375,-1.144531 0.988281,-2.023437 1.84375,-2.640625 0.851563,-0.613281 1.96875,-0.921875 3.34375,-0.921875 1.582031,0 2.832031,0.4375 3.75,1.3125 0.925781,0.875 1.472656,2.242187 1.640625,4.09375 0.03125,0.242187 -0.0625,0.382813 -0.28125,0.421875 l -2.015625,0.390625 c -0.261719,0.05469 -0.390625,-0.03906 -0.390625,-0.28125 -0.167969,-2.15625 -1.058594,-3.234375 -2.671875,-3.234375 -1.261719,0 -2.070313,0.558594 -2.421875,1.671875 -0.042969,0.167969 -0.089844,0.371094 -0.140625,0.609375 -0.042969,0.230469 -0.078125,0.621094 -0.109375,1.171875 -0.023438,0.542969 -0.039062,1.308594 -0.046875,2.296875 -0.011719,0.980469 -0.015625,2.296875 -0.015625,3.953125 0,1.679687 0.00391,3.007813 0.015625,3.984375 0.00781,0.96875 0.023437,1.726562 0.046875,2.265625 0.03125,0.542969 0.066406,0.933594 0.109375,1.171875 0.050781,0.242188 0.097656,0.445312 0.140625,0.609375 0.351562,1.117187 1.160156,1.671875 2.421875,1.671875 1.613281,0 2.503906,-1.078125 2.671875,-3.234375 0,-0.238281 0.128906,-0.332031 0.390625,-0.28125 L 12.46875,-5.5 c 0.21875,0.042969 0.3125,0.183594 0.28125,0.421875 C 12.582031,-3.234375 12.035156,-1.875 11.109375,-1 c -0.917969,0.875 -2.167969,1.3125 -3.75,1.3125 -1.375,0 -2.492187,-0.30859375 -3.34375,-0.921875 -0.855469,-0.613281 -1.46875,-1.488281 -1.84375,-2.625 z m 0,0"
           id="path3805" />
      </g>
    </g>
    <g
       style="fill:#2e2e2e;fill-opacity:1"
       id="g3815">
      <g
         transform="translate(274.91769,175.8506)"
         id="g3813">
        <path
           style="stroke:none"
           d="m 2.125,-23.8125 c 0,-0.226562 0.117188,-0.34375 0.359375,-0.34375 H 11.625 c 0.226562,0 0.34375,0.117188 0.34375,0.34375 v 1.953125 c 0,0.242187 -0.117188,0.359375 -0.34375,0.359375 H 5.21875 c -0.136719,0 -0.203125,0.07422 -0.203125,0.21875 V -13.75 c 0,0.148438 0.066406,0.21875 0.203125,0.21875 h 5.546875 c 0.238281,0 0.359375,0.117188 0.359375,0.34375 v 1.953125 c 0,0.242187 -0.121094,0.359375 -0.359375,0.359375 H 5.21875 c -0.136719,0 -0.203125,0.07422 -0.203125,0.21875 V -2.875 c 0,0.136719 0.066406,0.203125 0.203125,0.203125 H 11.625 c 0.226562,0 0.34375,0.121094 0.34375,0.359375 v 1.953125 C 11.96875,-0.117188 11.851562,0 11.625,0 H 2.484375 C 2.242188,0 2.125,-0.117188 2.125,-0.359375 Z m 0,0"
           id="path3811" />
      </g>
    </g>
    <g
       style="fill:#2e2e2e;fill-opacity:1"
       id="g3821">
      <g
         transform="translate(287.95558,175.8506)"
         id="g3819">
        <path
           style="stroke:none"
           d="M 11.078125,0 C 10.890625,0 10.757812,-0.0820312 10.6875,-0.25 L 7.671875,-10.34375 c -0.167969,0.03125 -0.335937,0.04687 -0.5,0.04687 -0.167969,0 -0.328125,0 -0.484375,0 H 5.21875 c -0.136719,0 -0.203125,0.07031 -0.203125,0.203125 V -0.35938 C 5.015625,-0.117188 4.894531,0 4.65625,0 H 2.484375 C 2.242188,0 2.125,-0.117188 2.125,-0.359375 V -23.8125 c 0,-0.226562 0.117188,-0.34375 0.359375,-0.34375 H 6.71875 c 2.125,0 3.742188,0.523438 4.859375,1.5625 1.113281,1.042969 1.671875,2.839844 1.671875,5.390625 0,1.636719 -0.257812,2.953125 -0.765625,3.953125 -0.511719,0.992188 -1.242187,1.726562 -2.1875,2.203125 l 3.375,10.6875 C 13.773438,-0.117188 13.71875,0 13.5,0 Z M 6.75,-12.890625 c 1.257812,0 2.175781,-0.300781 2.75,-0.90625 0.582031,-0.601563 0.875,-1.738281 0.875,-3.40625 0,-1.632813 -0.289062,-2.757813 -0.859375,-3.375 C 8.953125,-21.191406 8.03125,-21.5 6.75,-21.5 H 5.21875 c -0.136719,0 -0.203125,0.07422 -0.203125,0.21875 v 8.171875 c 0,0.148437 0.066406,0.21875 0.203125,0.21875 z m 0,0"
           id="path3817" />
      </g>
    </g>
    <g
       style="fill:#352bd0;fill-opacity:1"
       id="g3827">
      <g
         transform="translate(108.61417,176.35916)"
         id="g3825">
        <path
           style="stroke:none"
           d="M 3.90625,5.328125 -0.78125,0.09375 12.140625,-34.765625 H 22 l 6.59375,5.046875 13.015625,35.046875 h -9.6875 L 25.875,0.265625 25.234375,-1.546875 H 14.34375 l -2.375,6.875 z M 0.34375,-0.4375 h 7.328125 l 2.375,-6.875 h 14.125 l 2.390625,6.875 h 7.421875 l -12.4375,-33.453125 H 12.78125 Z M 40.3125,4.359375 27.859375,-29.1875 l -5.03125,-3.875 12.4375,33.5 z m -28.59375,-17.5 5.421875,-14.59375 5.390625,14.59375 z M 16.796875,-23 H 17.1875 v -0.390625 h -0.390625 z m -0.8125,0.9375 h 0.375 v -0.5 H 16.15625 Z m 1.671875,-0.0625 h 0.390625 v -0.390625 H 17.65625 Z m -0.9375,0.9375 h 0.5 v -0.484375 h -0.5 z m 1.640625,-0.03125 h 0.25 l -0.140625,-0.390625 h -0.109375 z m -2.546875,0.9375 h 0.59375 V -20.875 H 15.8125 Z m 1.796875,-0.04687 h 0.484375 v -0.48438 h -0.484375 z m -2.625,0.953125 h 0.59375 v -0.65625 h -0.34375 z m 1.71875,-0.04687 h 0.578125 v -0.5625 h -0.578125 z m 1.78125,-0.03125 h 0.5 V -19.9375 h -0.5 z m -2.6875,0.9375 h 0.625 v -0.640625 h -0.625 z m 1.78125,-0.01563 h 0.5625 V -19.125 h -0.5625 z m -2.96875,0.09375 H 14.8125 v -0.515625 z m 0.296875,0.828125 H 15.625 V -18.3125 H 14.90625 Z M 16.671875,-17.625 H 17.3125 v -0.640625 h -0.640625 z m 1.765625,-0.03125 h 0.421875 l 0.171875,-0.4375 V -18.25 H 18.4375 Z m 0.03125,3.625 h 2.796875 l -1.40625,-3.796875 z m -4.484375,-2.671875 h 0.78125 v -0.78125 h -0.5 z m 1.78125,-0.01563 h 0.71875 v -0.71875 h -0.71875 z M 17.53125,-16.75 h 0.65625 v -0.65625 h -0.65625 z m -2.671875,0.9375 h 0.78125 v -0.78125 h -0.78125 z M 16.625,-15.84375 h 0.71875 v -0.703125 H 16.625 Z m -3.5625,1.8125 h 0.890625 v -0.875 h 0.828125 v -0.859375 h -0.859375 v -0.765625 l -0.28125,0.765625 h 0.28125 v 0.859375 H 13.3125 l -0.25,0.6875 z m 2.65625,-0.90625 H 16.5 v -0.78125 h -0.78125 z m 1.796875,-0.04687 H 17.875 l 0.25,-0.703125 h -0.609375 z m -2.703125,0.95312 h 0.859375 v -0.859375 H 14.8125 Z m 1.78125,-0.04687 h 0.796875 v -0.78125 H 16.59375 Z m -5,8.09375 h 0.59375 v -0.4375 h -0.59375 z m 1.875,0 h 0.578125 v -0.4375 H 13.46875 Z m 1.828125,0 h 0.59375 v -0.4375 h -0.59375 z m 1.84375,0 h 0.59375 v -0.4375 h -0.59375 z m 1.84375,0 H 19.5625 v -0.4375 h -0.578125 z m 1.828125,0 h 0.59375 v -0.4375 H 20.8125 Z m 1.84375,0 H 23.25 v -0.4375 H 22.65625 Z M 12.5,-5.078125 h 0.59375 v -0.5625 H 12.5 Z m 1.875,0 h 0.578125 v -0.5625 H 14.375 Z m 1.828125,0 h 0.59375 v -0.5625 h -0.59375 z m 1.84375,0 h 0.59375 v -0.5625 h -0.59375 z m 1.84375,0 h 0.578125 v -0.5625 h -0.578125 z m 1.828125,0 h 0.59375 v -0.5625 h -0.59375 z m 1.84375,0 H 24 l -0.1875,-0.5625 h -0.25 z m -13.21875,0.21875 h 0.515625 V -5.34375 H 10.34375 Z m 3.0625,0.71875 h 0.625 v -0.59375 h -0.625 z m 1.875,0 h 0.609375 v -0.59375 H 15.28125 Z m 1.828125,0 h 0.625 v -0.59375 h -0.625 z m 1.84375,0 H 19.5625 v -0.59375 h -0.609375 z m 1.84375,0 h 0.609375 v -0.59375 h -0.609375 z m 1.84375,0 H 23.25 v -0.59375 H 22.640625 Z M 9.8125,-3.84375 h 0.296875 v -0.734375 h -0.0625 z m 1.421875,-0.125 H 11.75 v -0.515625 h -0.515625 z m 3.09375,0.734375 h 0.578125 v -0.59375 h -0.578125 z m 1.859375,0 h 0.578125 v -0.59375 H 16.1875 Z m 1.828125,0 h 0.59375 v -0.59375 h -0.59375 z m 1.84375,0 h 0.59375 v -0.59375 h -0.59375 z m 1.84375,0 h 0.59375 v -0.59375 h -0.59375 z m 1.84375,0 H 24.125 v -0.59375 h -0.578125 z m -12.25,7.671875 h 0.03125 L 11.5,3.921875 h -0.296875 v -0.6875 H 11.75 l 0.65625,-1.90625 H 12.046875 V 0.59375 h 0.609375 l 0.1875,-0.546875 V -0.34375 H 13 l 0.234375,-0.765625 H 12.84375 v 0.765625 h -0.875 v -0.875 H 11.109375 V -2.078125 H 10.21875 V -2.96875 h 0.765625 V -3.734375 H 10.21875 V -2.96875 H 9.484375 l -0.140625,0.4375 v 0.421875 H 9.203125 L 8.875,-1.15625 h 0.390625 v 0.734375 H 8.609375 L 8.390625,0.21875 V 0.546875 L 8.578125,0.8125 V 0.609375 h 0.6875 v 0.6875 h -0.3125 L 9.4375,1.9375 V 1.5 H 10.125 V 2.1875 H 9.609375 Z m 0.8125,-7.53125 h 0.5 v -0.515625 h -0.5 z M 15.25,-2.421875 h 0.59375 v -0.5 H 15.25 Z m 1.859375,0 h 0.59375 v -0.5 h -0.59375 z m 1.84375,0 h 0.59375 v -0.5 h -0.59375 z m 1.84375,0 H 21.375 v -0.5 h -0.578125 z m 1.84375,0 h 0.578125 v -0.5 h -0.578125 z m 1.828125,0 h 0.46875 l -0.171875,-0.5 H 24.46875 Z m -13.359375,0.3125 H 11.84375 V -2.84375 h -0.734375 z m 1.859375,-0.125 h 0.515625 V -2.71875 H 12.96875 Z M 9.421875,-1.28125 v -0.75 h 0.75 v 0.75 z m 2.5625,0.0625 h 0.75 v -0.75 h -0.75 z m -1.6875,0.796875 V -1.15625 h 0.734375 v 0.734375 z M 11.15625,0.46875 v -0.765625 h 0.765625 V 0.46875 Z M 9.4375,0.4375 v -0.703125 h 0.71875 V 0.4375 Z m 0.859375,0.890625 v -0.71875 h 0.734375 v 0.71875 z M 11.1875,2.1875 V 1.46875 h 0.703125 V 2.1875 Z m -0.859375,0.875 V 2.359375 h 0.6875 V 3.0625 Z m 0,0"
           id="path3823" />
      </g>
    </g>
    <g
       style="fill:#352bd0;fill-opacity:1"
       id="g3833">
      <g
         transform="translate(140.30441,176.35916)"
         id="g3831">
        <path
           style="stroke:none"
           d="m 7.609375,5.328125 -5.15625,-5.15625 v -34.9375 h 8.40625 l 5.390625,5.125 V 5.328125 Z M 3.328125,-0.4375 H 10.25 V -33.890625 H 3.328125 Z M 11.1875,-32.765625 h 0.515625 L 11.1875,-33.25 Z M 12.046875,-31.875 H 12.625 l -0.578125,-0.5625 z M 11.125,-30.953125 h 0.71875 V -31.65625 H 11.125 Z M 12.953125,-31 H 13.5625 l -0.609375,-0.5625 z m -0.96875,0.9375 h 0.75 v -0.71875 h -0.75 z m 1.84375,-0.04687 H 14.4375 v -0.03125 l -0.578125,-0.5625 h -0.03125 z M 11.125,-29.125 h 0.765625 v -0.8125 H 11.125 Z m 1.765625,-0.0625 h 0.71875 v -0.703125 h -0.71875 z m 1.828125,-0.04687 h 0.609375 v -0.0625 L 14.78125,-29.8125 h -0.0625 z M 11.9375,-28.25 h 0.84375 v -0.8125 H 11.9375 Z m 1.84375,-0.04687 h 0.703125 v -0.71875 H 13.78125 Z M 15.375,4.46875 v -27.4375 h -0.765625 v -0.8125 H 15.375 v -0.90625 h -0.8125 v -0.890625 h -0.875 v -0.875 h -0.890625 v -0.890625 h -0.875 v -0.875 H 11.125 v 0.90625 h 0.75 V -26.5 h -0.75 v 0.96875 h 0.75 v 0.734375 h -0.75 v 25.21875 z m -2.546875,-31.828125 h 0.828125 v -0.8125 h -0.828125 z m 1.828125,-0.0625 H 15.375 V -28.125 h -0.71875 z m -0.953125,0.9375 h 0.84375 v -0.8125 h -0.84375 z M 11.96875,-25.625 v -0.8125 h 0.8125 v 0.8125 z m 2.625,0.03125 H 15.375 v -0.8125 h -0.78125 z m -1.75,0.859375 v -0.8125 h 0.8125 v 0.8125 z m 0.890625,0.875 v -0.8125 h 0.8125 v 0.8125 z m -1.71875,-0.07813 V -24.64063 H 12.75 v 0.703125 z m 0.875,0.890625 v -0.734375 h 0.71875 v 0.734375 z M 11.1875,-23.09375 v -0.640625 h 0.625 v 0.640625 z m 2.5625,0.921875 v -0.734375 h 0.734375 v 0.734375 z m -1.6875,-0.04687 v -0.640625 h 0.640625 v 0.640625 z m 2.578125,0.90625 v -0.703125 h 0.6875 v 0.703125 z m -1.6875,-0.04687 V -21.96875 H 13.5625 v 0.609375 z m -1.71875,-0.04687 v -0.546875 h 0.53125 v 0.546875 z m 2.578125,0.9375 v -0.640625 h 0.625 v 0.640625 z m -1.703125,-0.0625 v -0.53125 h 0.546875 v 0.53125 z m 2.578125,0.9375 v -0.640625 h 0.640625 v 0.640625 z m -1.71875,-0.04687 V -20.1875 h 0.546875 v 0.546875 z m -1.6875,-0.04687 v -0.4375 h 0.4375 v 0.4375 z m 2.578125,0.90625 V -19.3281 h 0.53125 v 0.546875 z m -1.703125,-0.04687 v -0.453125 h 0.453125 v 0.453125 z m 2.578125,0.921875 v -0.53125 h 0.546875 v 0.53125 z m -1.71875,-0.04687 v -0.4375 h 0.453125 v 0.4375 z M 11.328125,-18 v -0.34375 h 0.34375 V -18 Z m 2.578125,0.9375 v -0.453125 h 0.4375 v 0.453125 z m -1.6875,-0.04687 v -0.34375 h 0.34375 v 0.34375 z m 2.5625,0.90625 v -0.453125 h 0.453125 v 0.453125 z M 13.0625,-16.25 v -0.34375 h 0.34375 V -16.25 Z m -1.6875,-0.0625 v -0.234375 h 0.25 v 0.234375 z m 2.578125,0.9375 v -0.34375 h 0.34375 v 0.34375 z m -1.6875,-0.04687 v -0.25 H 12.5 v 0.25 z m 2.5625,0.9375 v -0.34375 h 0.34375 v 0.34375 z M 13.125,-14.54687 v -0.234375 h 0.234375 v 0.234375 z M 14,-13.6875 v -0.234375 h 0.25 v 0.234375 z m 0.890625,0.890625 v -0.25 H 15.125 v 0.25 z m 0,0"
           id="path3829" />
      </g>
    </g>
    <g
       style="fill:#352bd0;fill-opacity:1"
       id="g3839">
      <g
         transform="translate(151.25836,176.35916)"
         id="g3837">
        <path
           style="stroke:none"
           d=""
           id="path3835" />
      </g>
    </g>
  </g>
</svg>
