<svg xmlns="http://www.w3.org/2000/svg" viewBox="0 0 220 220" fill="none">
  <g stroke="#8eafc4" stroke-width="5.5" stroke-linecap="round" stroke-linejoin="round">
    <circle cx="110" cy="110" r="16" />
    <circle cx="110" cy="110" r="34" opacity="0.55" />
    <circle cx="110" cy="110" r="54" opacity="0.25" />
    <g>
      <path d="M110 92V18" />
      <path d="M110 34l-12 10M110 34l12 10" />
      <path d="M110 50l-18 14M110 50l18 14" />
      <path d="M110 66l-22 16M110 66l22 16" />
      <path d="M110 82l-14 10M110 82l14 10" />
      <path d="M110 18l-8 10M110 18l8 10" />
    </g>
    <g transform="rotate(60 110 110)">
      <path d="M110 92V18" />
      <path d="M110 34l-12 10M110 34l12 10" />
      <path d="M110 50l-18 14M110 50l18 14" />
      <path d="M110 66l-22 16M110 66l22 16" />
      <path d="M110 82l-14 10M110 82l14 10" />
      <path d="M110 18l-8 10M110 18l8 10" />
    </g>
    <g transform="rotate(120 110 110)">
      <path d="M110 92V18" />
      <path d="M110 34l-12 10M110 34l12 10" />
      <path d="M110 50l-18 14M110 50l18 14" />
      <path d="M110 66l-22 16M110 66l22 16" />
      <path d="M110 82l-14 10M110 82l14 10" />
      <path d="M110 18l-8 10M110 18l8 10" />
    </g>
    <g transform="rotate(180 110 110)">
      <path d="M110 92V18" />
      <path d="M110 34l-12 10M110 34l12 10" />
      <path d="M110 50l-18 14M110 50l18 14" />
      <path d="M110 66l-22 16M110 66l22 16" />
      <path d="M110 82l-14 10M110 82l14 10" />
      <path d="M110 18l-8 10M110 18l8 10" />
    </g>
    <g transform="rotate(240 110 110)">
      <path d="M110 92V18" />
      <path d="M110 34l-12 10M110 34l12 10" />
      <path d="M110 50l-18 14M110 50l18 14" />
      <path d="M110 66l-22 16M110 66l22 16" />
      <path d="M110 82l-14 10M110 82l14 10" />
      <path d="M110 18l-8 10M110 18l8 10" />
    </g>
    <g transform="rotate(300 110 110)">
      <path d="M110 92V18" />
      <path d="M110 34l-12 10M110 34l12 10" />
      <path d="M110 50l-18 14M110 50l18 14" />
      <path d="M110 66l-22 16M110 66l22 16" />
      <path d="M110 82l-14 10M110 82l14 10" />
      <path d="M110 18l-8 10M110 18l8 10" />
    </g>
  </g>
</svg>
